<?xml version="1.0" encoding="UTF-8"?>
<svg width="3852px" height="1024px" viewBox="0 0 3852 1024" version="1.1" xmlns="http://www.w3.org/2000/svg" xmlns:xlink="http://www.w3.org/1999/xlink">
    <!-- Generator: Sketch 53.2 (72643) - https://sketchapp.com -->
    <title>sqitch-logo</title>
    <desc>Created with Sketch.</desc>
    <g id="Sqitch" stroke="none" stroke-width="1" fill="none" fill-rule="evenodd">
        <g id="sqitch-logo">
            <path d="M640.275795,166.59979 L405.256632,302.288168 C397.885131,294.27607 389.189585,287.231235 379.262794,281.5 C326.650606,251.124339 259.375661,269.150606 229,321.762794 C198.624339,374.374983 216.650606,441.649928 269.262794,472.025589 C314.869435,498.356595 371.493982,488.317367 405.550669,450.907184 L627.179093,578.864414 C624.45706,588.441237 623,598.550461 623,609 C623,620.598892 624.795214,631.77849 628.122945,642.276097 L405.062475,771.06012 C398.05104,763.386802 389.825211,756.585944 380.460107,750.958821 C335.451869,723.915144 278.860653,732.832761 244.129247,769.373449 L7.10542736e-15,622.685798 L0,153.6 C0,68.8128 229.376,0 512,0 C794.624,0 1024,68.8128 1024,153.6 L1024,870.4 C1024,928.567534 916.043527,979.21667 757.000089,1005.28656 L757,716.37412 C806.20948,705.42334 843,661.508113 843,609 C843,548.248678 793.751322,499 733,499 C699.935364,499 670.278055,513.588498 650.113558,536.680008 L429.383767,409.241603 C436.097978,387.580313 435.775929,364.778564 429.231061,343.87215 L664.275795,208.16901 L696.325223,263.680247 L815.332174,93.8063324 L608.713573,111.932417 L640.275795,166.59979 Z M652.295599,683.745635 C667.193808,699.823902 686.837402,711.44219 709,716.37412 L709,1012.2047 C648.34977,1019.80293 581.798752,1024 512,1024 C229.376,1024 0,955.1872 0,870.4 L0,678.684201 L219.40742,810.517479 C203.449314,858.338305 222.143492,912.49195 267.15173,939.535627 C319.225777,970.824872 386.805077,953.97546 418.094321,901.901413 C434.875033,873.973618 437.809737,841.586084 428.890516,812.728619 L652.295599,683.745635 Z M293.418672,895.820095 C265.488047,879.037682 256.450635,842.790603 273.233048,814.859978 C290.01546,786.929353 326.26254,777.891941 354.193165,794.674354 C382.12379,811.456766 391.161202,847.703845 374.378789,875.634471 C357.596376,903.565096 321.349297,912.602508 293.418672,895.820095 Z M792,609 C792,641.5848 765.5848,668 733,668 C700.4152,668 674,641.5848 674,609 C674,576.4152 700.4152,550 733,550 C765.5848,550 792,576.4152 792,609 Z M353.762794,325.667296 C381.982059,341.959696 391.650693,378.04353 375.358293,406.262794 C359.065893,434.482059 322.982059,444.150693 294.762794,427.858293 C266.54353,411.565893 256.874895,375.482059 273.167296,347.262794 C289.459696,319.04353 325.54353,309.374895 353.762794,325.667296 Z" id="sqitch-mark" fill="#22538E"></path>
            <path d="M1544,308.3 L1411.4,308.3 L1411.4,278.4 C1411.4,248.066515 1404.25007,221.850111 1389.95,199.75 C1375.64993,177.649889 1351.60017,166.6 1317.8,166.6 C1299.59991,166.6 1284.86672,170.066632 1273.6,177 C1262.33328,183.933368 1253.23337,192.599948 1246.3,203 C1239.36663,214.266723 1234.60001,227.049929 1232,241.35 C1229.39999,255.650072 1228.1,270.599922 1228.1,286.2 C1228.1,304.400091 1228.74999,319.566606 1230.05,331.7 C1231.35001,343.833394 1234.59997,354.666619 1239.8,364.2 C1245.00003,373.733381 1252.58328,381.966632 1262.55,388.9 C1272.51672,395.833368 1286.16658,402.766632 1303.5,409.7 L1404.9,450 C1434.36681,461.266723 1458.19991,474.483258 1476.4,489.65 C1494.60009,504.816743 1508.89995,522.366567 1519.3,542.3 C1528.83338,563.100104 1535.33332,586.716535 1538.8,613.15 C1542.26668,639.583466 1544,669.699831 1544,703.5 C1544,742.500195 1540.10004,778.683167 1532.3,812.05 C1524.49996,845.416834 1511.93342,873.799883 1494.6,897.2 C1476.39991,921.466788 1452.56681,940.533264 1423.1,954.4 C1393.63319,968.266736 1357.66688,975.2 1315.2,975.2 C1283.13317,975.2 1253.23347,969.566723 1225.5,958.3 C1197.76653,947.033277 1173.93343,931.433433 1154,911.5 C1134.06657,891.566567 1118.25006,868.383466 1106.55,841.95 C1094.84994,815.516535 1089,786.700156 1089,755.5 L1089,706.1 L1221.6,706.1 L1221.6,747.7 C1221.6,771.966788 1228.74993,793.849903 1243.05,813.35 C1257.35007,832.850098 1281.39983,842.6 1315.2,842.6 C1337.73345,842.6 1355.28327,839.350033 1367.85,832.85 C1380.41673,826.349968 1390.16663,817.033394 1397.1,804.9 C1404.03337,792.766606 1408.14999,778.250085 1409.45,761.35 C1410.75001,744.449916 1411.4,725.600104 1411.4,704.8 C1411.4,680.533212 1410.53334,660.600078 1408.8,645 C1407.06666,629.399922 1403.60003,616.833381 1398.4,607.3 C1392.3333,597.766619 1384.31672,589.966697 1374.35,583.9 C1364.38328,577.833303 1351.16675,571.333368 1334.7,564.4 L1239.8,525.4 C1182.59971,501.999883 1144.2501,471.01686 1124.75,432.45 C1105.2499,393.883141 1095.5,345.566957 1095.5,287.5 C1095.5,252.83316 1100.26662,219.900156 1109.8,188.7 C1119.33338,157.499844 1133.63324,130.633446 1152.7,108.1 C1170.90009,85.566554 1194.08319,67.5834005 1222.25,54.15 C1250.41681,40.7165995 1283.9998,34 1323,34 C1355.9335,34 1386.04986,40.066606 1413.35,52.2 C1440.65014,64.333394 1464.26657,80.366567 1484.2,100.3 C1524.06687,141.900208 1544,189.566398 1544,243.3 L1544,308.3 Z M1767.6,749 C1767.6,781.066827 1776.48324,804.683258 1794.25,819.85 C1812.01676,835.016743 1833.03321,842.6 1857.3,842.6 C1869.43339,842.6 1878.96663,840.866684 1885.9,837.4 L1826.1,789.3 L1893.7,708.7 L1947,751.6 L1947,260.2 C1947,228.133173 1938.11676,204.516742 1920.35,189.35 C1902.58324,174.183257 1881.56679,166.6 1857.3,166.6 C1833.03321,166.6 1812.01676,174.183257 1794.25,189.35 C1776.48324,204.516742 1767.6,228.133173 1767.6,260.2 L1767.6,749 Z M1635,260.2 C1635,222.933147 1641.49993,190.000143 1654.5,161.4 C1667.50006,132.799857 1684.83322,108.966762 1706.5,89.9 C1727.3001,71.699909 1750.91653,57.833381 1777.35,48.3 C1803.78347,38.766619 1830.4332,34 1857.3,34 C1884.1668,34 1910.81653,38.766619 1937.25,48.3 C1963.68347,57.833381 1987.73322,71.699909 2009.4,89.9 C2030.2001,108.966762 2047.09993,132.799857 2060.1,161.4 C2073.10006,190.000143 2079.6,222.933147 2079.6,260.2 L2079.6,749 C2079.6,785.400182 2073.10006,817.033199 2060.1,843.9 L2142,910.2 L2074.4,990.8 L1996.4,927.1 C1956.53313,959.166827 1910.16693,975.2 1857.3,975.2 C1830.4332,975.2 1803.78347,970.433381 1777.35,960.9 C1750.91653,951.366619 1727.3001,937.066762 1706.5,918 C1684.83322,899.799909 1667.50006,876.833472 1654.5,849.1 C1641.49993,821.366528 1635,788.000195 1635,749 L1635,260.2 Z M2200.5,967.4 L2200.5,41.8 L2333.1,41.8 L2333.1,967.4 L2200.5,967.4 Z M2548.9,967.4 L2548.9,166.6 L2395.5,166.6 L2395.5,41.8 L2834.9,41.8 L2834.9,166.6 L2681.5,166.6 L2681.5,967.4 L2548.9,967.4 Z M3314.6,703.5 L3314.6,760.7 C3314.6,789.300143 3309.18339,816.383206 3298.35,841.95 C3287.51661,867.516795 3272.56676,890.266567 3253.5,910.2 C3234.43324,930.133433 3212.11679,945.949942 3186.55,957.65 C3160.98321,969.350059 3133.46681,975.2 3104,975.2 C3078.86654,975.2 3053.30013,971.733368 3027.3,964.8 C3001.29987,957.866632 2977.9001,945.73342 2957.1,928.4 C2936.2999,911.06658 2919.1834,888.750137 2905.75,861.45 C2892.3166,834.149864 2885.6,799.266879 2885.6,756.8 L2885.6,247.2 C2885.6,216.866515 2890.79995,188.70013 2901.2,162.7 C2911.60005,136.69987 2926.33324,114.166762 2945.4,95.1 C2964.46676,76.033238 2987.21653,61.0833875 3013.65,50.25 C3040.08347,39.4166125 3069.33317,34 3101.4,34 C3163.80031,34 3214.4998,54.366463 3253.5,95.1 C3272.56676,115.033433 3287.51661,138.649864 3298.35,165.95 C3309.18339,193.250137 3314.6,222.933173 3314.6,255 L3314.6,307 L3182,307 L3182,262.8 C3182,236.79987 3174.63341,214.266762 3159.9,195.2 C3145.16659,176.133238 3125.23346,166.6 3100.1,166.6 C3067.1665,166.6 3045.28339,176.783232 3034.45,197.15 C3023.61661,217.516769 3018.2,243.299844 3018.2,274.5 L3018.2,747.7 C3018.2,774.566801 3024.04994,797.099909 3035.75,815.3 C3047.45006,833.500091 3068.46652,842.6 3098.8,842.6 C3107.46671,842.6 3116.78328,841.083349 3126.75,838.05 C3136.71672,835.016652 3146.03329,830.033368 3154.7,823.1 C3162.50004,816.166632 3168.99997,806.633394 3174.2,794.5 C3179.40003,782.366606 3182,767.200091 3182,749 L3182,703.5 L3314.6,703.5 Z M3422.5,967.4 L3422.5,41.8 L3555.1,41.8 L3555.1,438.3 L3718.9,438.3 L3718.9,41.8 L3851.5,41.8 L3851.5,967.4 L3718.9,967.4 L3718.9,555.3 L3555.1,555.3 L3555.1,967.4 L3422.5,967.4 Z" id="sqitch-text" fill="#000000" fill-rule="nonzero"></path>
        </g>
    </g>
</svg>