<svg version="1.1" viewBox="0 0 435 1010" xml:space="preserve" xmlns="http://www.w3.org/2000/svg"><g transform="matrix(1.3333 0 0 1.3333 -179.09 -48.303)"><g fill="#0d5eaf"><path d="m393.93 114 1.433 4.613c7.746 18.481 21.633 26.301 36.946 34.766-19.559-2.41-33.704-10.367-44.106-39.379z"/><path d="m336.52 143.62c-0.707 1.774-0.356 43.992-0.356 43.992s-3.902 8.516-2.125 8.516c1.774 0 22.348-1.422 22.348-1.422l-4.61-14.543-0.711-37.254z"/><path d="m275.14 141.85s-0.356 13.125 0 14.898c0.355 1.774 9.222 24.836 10.644 25.543 1.418 0.711 10.285 4.613 10.285 4.613l-9.578 8.16-14.547-0.355s-2.836-4.609-3.191-7.094c-0.356-2.484-5.676-23.418-5.676-23.418l-10.644-19.511z"/><path d="m339.72 57.047 13.426 26.312 0.773-0.039 19.867 22.336-14.195 14.199-3.203 8.141 6.75 12.77 6.715 16.703 0.73 11.691-6.75 9.567-9.566 17.054-18.094-18.441 14.891-8.528 3.898-4.242-17.75-14.933s-5.855-5.844-9.527-10.84c-6.481 2.726-16.938 6.348-20.95 6.598-5.675 0.355-16.691-0.012-20.949 0.347-4.258 0.356-23.765 0.348-23.765 0.348s-15.989 3.558-17.051 4.976c-1.067 1.418-7.445 3.559-7.445 4.977s-9.915 19.519-9.915 19.519l-1.082 10.649 4.282 8.488h-24.844l1.078-8.488s6.715-9.961 6.715-11.379 6.75-17.363 6.75-17.363l3.203-19.172-1.773-17.016v-20.254l4.589-12.769 17.399-14.543 12.422-9.914 9.918-3.899 35.84-1.082 21.644 2.508z"/><path d="m374.83 45.699 6.387 3.903 10.289 7.097 9.933 14.192 6.032 11.351 4.257 12.774s4.614 15.254 4.614 16.675c0 1.418 0.351 16.672 0 18.094-0.356 1.418-2.485 15.254-2.485 17.738 0 2.485-3.195 17.383-3.547 18.801-0.355 1.422-4.968 8.16-4.968 8.16s-7.094 4.258-9.578 4.258c-2.485 0-9.934-3.547-9.934-3.547l-6.387-4.613-0.355-6.387 3.547-6.383 2.484-1.066 4.258 6.742-2.129 2.836s1.066 0.711 2.484 0.711 4.258 1.774 5.321 0c1.066-1.773 1.418-9.933 1.773-12.062 0.356-2.129 0.356-15.965 0.356-15.965l0.711-20.578-1.774-7.45-3.195 4.258-7.449-1.066-8.872-7.805-6.382-2.484s-8.161-5.321-9.582-6.031c-1.418-0.707-7.45-11.352-7.45-11.352l-7.093-12.062-3.907-9.223-2.48-13.129 5.676-5.32 10.289-6.032c10.965-3.644 10.531-2 19.156 4.965z"/><path d="m401.09 112.4 1.773 4.614c9.594 16.117 26.801 26.148 45.77 34.769-24.231-2.418-41.754-15.457-54.637-35.836z"/><path d="m401.09 92.887-3.902-5.321v4.965z"/><path d="m176.36 203.1h242.56v45.965h-242.56z"/><path d="m198.98 251.3h197.31v15.449c0 5.816-2.313 11.398-6.43 15.512-4.113 4.117-9.695 6.425-15.511 6.425h-153.43c-5.821 0-11.399-2.308-15.516-6.425-4.113-4.114-6.426-9.696-6.426-15.512z"/><path d="m176.36 530.96h242.56v45.961h-242.56z"/><path d="m137.32 579.6h320.64v60.758h-320.64z"/><path d="m396.29 528.73h-197.31v-15.45c0-5.816 2.313-11.398 6.426-15.511 4.117-4.118 9.695-6.426 15.516-6.426h153.43c5.816 0 11.398 2.308 15.511 6.426 4.117 4.113 6.43 9.695 6.43 15.511z"/><path d="m241.23 285.32c-1.204 0-2.368 0.145-3.493 0.399h-22.332v211.07h164.47v-211.07h-25.598c-1.125-0.254-2.293-0.399-3.496-0.399zm9.039 4.961c7.457 0 13.457 7.004 13.457 15.711v170.12c0 8.703-6 15.715-13.457 15.715-7.461 0-13.465-7.012-13.465-15.715v-170.12c0-8.707 6.004-15.711 13.465-15.711zm47.371 0c7.457 0 13.461 7.004 13.461 15.711v170.12c0 8.703-6.004 15.715-13.461 15.715s-13.457-7.012-13.457-15.715v-170.12c0-8.707 6-15.711 13.457-15.711zm47.375 0c7.457 0 13.461 7.004 13.461 15.711v170.12c0 8.703-6.004 15.715-13.461 15.715s-13.461-7.012-13.461-15.715v-170.12c0-8.707 6.004-15.711 13.461-15.711z"/></g><g transform="translate(-.61146)" fill="none" stroke="#4c9ff1" stroke-width="6.75"><path d="m352.07 737.61-6.6368 29.315h28.292"/><path d="m366.39 736.89v52.673"/><path d="m310.67 736.52 20.676 17.459-24.445 32.411h27.998"/><path d="m233.31 736.26 20.676 17.459-24.445 32.411h27.998"/><path d="m282.81 784.91-13.505-22.124 13.525-20.392 13.934 19.833z"/></g><g fill="none" stroke="#0d5eaf"><g stroke-width="6.9119"><path d="m205.56 668.36-27.472 24.964 28.814 21.219-0.0629-24.021h-12.289"/><path d="m245.24 668.55-23.789 24.887 24.173 25.87"/><path d="m270.73 715.86-13.829-22.655 13.849-21.244 14.268 20.672z"/></g><path d="m300.86 719.99v-43.253l25.072 33.689-0.0106-42.955" stroke-width="6.912"/><g stroke-width="6.9119"><path d="m343.18 719.96v-48.215l23.036 6.5334"/><path d="m343.41 690.05 20.103 5.3866"/><path d="m429.6 667.7v48.682l24.902-0.0358v-48.567"/><path d="m140.77 719.88v-47.674l23.299 12.024-23.623 12.211"/><path d="m390.73 693.6h24.442"/><path d="m412.5 668.55-23.789 24.887 24.173 25.87"/></g></g><rect transform="rotate(45)" x="767" y="236.1" width="8.1262" height="8.1274" fill="#0d5eaf"/></g></svg>
