<svg version="1" xmlns="http://www.w3.org/2000/svg" width="346.667" height="346.667" viewBox="0 0 260.000000 260.000000"><path d="M0 130v130h260V0H0v130zm155.3-84.2L180 70.5l-25 25-25 25-25-25-25-25 24.7-24.7C118.4 32.1 129.7 21 130 21c.3 0 11.6 11.1 25.3 24.8zm-60 59l24.7 24.7-25 25-25 25-25-25-25-25 24.7-24.7C58.4 91.1 69.7 80 70 80c.3 0 11.6 11.1 25.3 24.8zm120 0l24.7 24.7-25 25-25 25-25-25-25-25 24.7-24.7C178.4 91.1 189.7 80 190 80c.3 0 11.6 11.1 25.3 24.8zm-60 60l24.7 24.7-25 25-25 25-25-25-25-25 24.7-24.7c13.7-13.7 25-24.8 25.3-24.8.3 0 11.6 11.1 25.3 24.8z"/></svg>