<?xml version="1.0" encoding="UTF-8"?>
<svg width="1025px" height="1024px" viewBox="0 0 1025 1024" version="1.1" xmlns="http://www.w3.org/2000/svg" xmlns:xlink="http://www.w3.org/1999/xlink">
    <!-- Generator: Sketch 53.2 (72643) - https://sketchapp.com -->
    <title>icon</title>
    <desc>Created with Sketch.</desc>
    <defs>
        <path d="M1024.27149,153.6 L1024.27149,870.4 C1024.27149,955.1872 794.895487,1024 512.271487,1024 C229.647487,1024 0.271486627,955.1872 0.271486627,870.4 L0.271486627,153.6 C0.271486627,68.8128 229.647487,0 512.271487,0 C794.895487,0 1024.27149,68.8128 1024.27149,153.6 Z" id="path-1"></path>
    </defs>
    <g id="Sqitch" stroke="none" stroke-width="1" fill="none" fill-rule="evenodd">
        <g id="icon">
            <mask id="mask-2" fill="white">
                <use xlink:href="#path-1"></use>
            </mask>
            <use id="db" fill="#22538E" xlink:href="#path-1"></use>
            <path d="M640.547282,166.59979 L608.98506,111.932417 L815.603661,93.8063324 L696.59671,263.680247 L664.547282,208.16901 L429.502548,343.87215 C436.047416,364.778564 436.369464,387.580313 429.655254,409.241603 L650.385045,536.680008 C670.549541,513.588498 700.206851,499 733.271487,499 C794.022809,499 843.271487,548.248678 843.271487,609 C843.271487,661.508113 806.480966,705.42334 757.271487,716.37412 L757.271487,1042 L709.271487,1042 L709.271487,716.37412 C687.108888,711.44219 667.465295,699.823902 652.567085,683.745635 L429.162003,812.728619 C438.081224,841.586084 435.14652,873.973618 418.365808,901.901413 C387.076564,953.97546 319.497264,970.824872 267.423217,939.535627 C222.414979,912.49195 203.720801,858.338305 219.678907,810.517479 L-37.1506002,656.198743 L-12.4287726,615.054713 L244.400734,769.373449 C279.13214,732.832761 335.723355,723.915144 380.731593,750.958821 C390.096698,756.585944 398.322526,763.386802 405.333961,771.06012 L628.394431,642.276097 C625.0667,631.77849 623.271487,620.598892 623.271487,609 C623.271487,598.550461 624.728546,588.441237 627.45058,578.864414 L405.822156,450.907184 C371.765468,488.317367 315.140922,498.356595 269.534281,472.025589 C216.922092,441.649928 198.895825,374.374983 229.271487,321.762794 C259.647148,269.150606 326.922092,251.124339 379.534281,281.5 C389.461072,287.231235 398.156618,294.27607 405.528119,302.288168 L640.547282,166.59979 Z M293.690159,895.820095 C321.620784,912.602508 357.867863,903.565096 374.650276,875.634471 C391.432689,847.703845 382.395277,811.456766 354.464651,794.674354 C326.534026,777.891941 290.286947,786.929353 273.504534,814.859978 C256.722121,842.790603 265.759533,879.037682 293.690159,895.820095 Z M792.271487,609 C792.271487,576.4152 765.856287,550 733.271487,550 C700.686686,550 674.271487,576.4152 674.271487,609 C674.271487,641.5848 700.686686,668 733.271487,668 C765.856287,668 792.271487,641.5848 792.271487,609 Z M354.034281,325.667296 C325.815016,309.374895 289.731182,319.04353 273.438782,347.262794 C257.146382,375.482059 266.815016,411.565893 295.034281,427.858293 C323.253546,444.150693 359.33738,434.482059 375.62978,406.262794 C391.92218,378.04353 382.253546,341.959696 354.034281,325.667296 Z" id="s" fill="#FFFFFF" mask="url(#mask-2)"></path>
        </g>
    </g>
</svg>