<svg xmlns="http://www.w3.org/2000/svg" xmlns:xlink="http://www.w3.org/1999/xlink" viewBox="0 0 558.85 453.39"><defs><linearGradient id="b" x1="96.19" y1="360.07" x2="375.06" y2="155.82" gradientTransform="scale(-1 1) rotate(13.99 15.988 -1792.015)" gradientUnits="userSpaceOnUse"><stop offset="0" stop-color="#a13bae"/><stop offset=".26" stop-color="#e44caf"/><stop offset=".5" stop-color="#fc6fa2"/><stop offset=".75" stop-color="#fd9b84"/><stop offset="1" stop-color="#fcc34f"/></linearGradient><linearGradient id="c" x1="2.8" y1="413.29" x2="295.42" y2="116.74" gradientTransform="scale(-1 1) rotate(13.99 15.988 -1792.015)" gradientUnits="userSpaceOnUse"><stop offset="0" stop-color="#7126ab"/><stop offset=".26" stop-color="#c546af"/><stop offset=".5" stop-color="#fb52ae"/><stop offset=".75" stop-color="#fd8992"/><stop offset="1" stop-color="#fdac71"/></linearGradient><linearGradient id="a" x1="48.01" y1="421.36" x2="361.11" y2="206.04" gradientTransform="scale(-1 1) rotate(13.99 15.988 -1792.015)" gradientUnits="userSpaceOnUse"><stop offset="0" stop-color="#9318ab"/><stop offset=".26" stop-color="#c91f9d"/><stop offset=".53" stop-color="#dd2293"/><stop offset=".79" stop-color="#fb3058"/><stop offset="1" stop-color="#fb4b41"/></linearGradient><linearGradient id="d" x1="49.41" y1="423.41" x2="362.51" y2="208.08" xlink:href="#a"/><linearGradient id="e" x1="95.69" y1="490.7" x2="408.79" y2="275.38" xlink:href="#a"/></defs><path d="M490.72 175.3c-18.04-53.21-119.32-83.66-222.59-84.57-104.87-.92-211.71 26.4-231.32 100.6-10.23 38.72 23.47 65.95 64.21 93.1 23.15 15.43 49.93 32.32 70.22 52.14 56.47 55.16 78.71 116.97 119.85 116.82 19.61-.07 38.29-13.24 54.42-31.34 23.04-25.87 48.73-57.15 80.45-93.38 21.42-24.47 40.31-49.79 52.45-70.48 17.4-29.67 21.92-54.54 12.31-82.89Z" fill="url(#b)" opacity=".3"/><path d="M555.35 276.27c16.01-64.51-25.58-142.69-70.68-195.13-52.23-60.72-111.16-90.98-163.1-78.29-36.44 8.9-69.22 25.75-96.61 60.82-19.21 24.6-38.5 54.84-54.34 99.94-24.81 70.61-51.27 99.72-40.65 113.53 18.57 24.13 114.17-16.27 135.26 14.05 9.97 14.33-.63 37.98-8.91 63.56-10.69 33.04-17.41 70.07 16.34 86.32 27.26 13.13 101.99-7.55 186.88-66.74 45.9-32 88.67-69.27 95.82-98.06Z" fill="url(#c)" opacity=".3"/><path d="M484.3 302.59c-1.72-4.98-3.54-9.76-5.42-14.37-14-31.22-34.97-60.99-58.59-83.81-23.97-22.81-50.61-38.67-83.91-41.85-32.84-3.29-65.68-6.58-98.52-9.88 15.62 6.61 32.31 18.17 45.92 33.41 20.59 23.55 33.97 55.71 18.91 96.75-13.3 34.2-35.27 65.69-60.89 70.19-7.73 1.39-15.66.2-23.33-3.97 4.21 21.34 10.3 44.73 15.54 62.37 2.8 9.8 15.3 12.48 21.73 4.58 9.08-11.01 24.54-31.92 38.66-52.21 11.34-16.02 28.18-22.24 45.35-21.06 17.14 1.28 34.62 9.95 46.52 26.1 12.19 16.9 23.91 32.06 29.46 39.57 4.34 5.96 13.7 6.74 19.47 1.86 11.26-9.47 28.76-26.03 40.3-44.51 11.69-18.74 17.43-39.41 8.81-63.18Z" fill="url(#a)"/><path d="M176.87 272.58c6.66 26.2 16.19 45.97 27.03 57.91 10.83 12.07 22.97 16.31 34.67 14.25 23.85-4.08 44.59-33.18 57.48-65.29 14.7-38.54 2.25-68.96-17.13-91.17-19.63-22.04-46.18-35.87-65.36-37.29-16.62-1.35-34.05-1.02-49.17 6.49-15.29 7.49-28.28 22.16-39.88 49.29-4.46 10.39-8 21.07-10.43 31.98-2.53 11.16-6.05 24.57-12.65 36.71-4.95 9.11-11.64 17.51-20.95 23.71C61.47 311.43 3.95 278.54 4.29 279c-1.43 1.28-2.86 2.55-4.29 3.81.12-.32 17.55 16.1 45.94 31.02 10.45 5.41 22.43 10.61 35.14 14.13 21.35 5.91 44.76 7.08 66.48-3.48.18-.09.36-.19.54-.28 22.68-11.6 27.46-33.72 28.47-44.86.39-4.23.23-6.89.31-6.77Z" fill="url(#d)"/><path d="M174.78 320.38c-3.59 26.85-34.42 20.65-34.37 20.38-.54.03 36.65 25.28 57.83-5.14-.22-.16-18.71-24.61-23.46-15.24Z" fill="url(#e)"/></svg>